PathFileType	4	(X/Y/Z)	D:\TRACE\v60_Jaco2_6-2-23\ArmBody_Mo2_DMP_1-v60.trc
DataRate	CameraRate	NumFrames	NumMarkers	Units	OrigDataRate	OrigDataStartFrame	OrigNumFrames
100.00	100.00	      21	9	mm	100.00	4095	      6551
Frame#	Time	front left toe			Front right toe			aft left toe			aft right toe			Arm			FL body			FR body			AL Body			AR Body			
		X1	Y1	Z1	X2	Y2	Z2	X3	Y3	Z3	X4	Y4	Z4	X5	Y5	Z5	X6	Y6	Z6	X7	Y7	Z7	X8	Y8	Z8	X9	Y9	Z9	

4095	40.940	-273.88632	62.70991	-325.97382	175.96074	-7.38743	-326.82458	-153.70160	31.42859	325.61209	134.12558	83.35183	273.53690	9.57480	1042.03540	-785.57898	-145.33495	547.67419	-459.98560	13.27233	551.04077	-469.35080	-79.90853	583.01221	484.73944	72.59234	572.85394	473.93140	
4096	40.950	-277.33276	54.09670	-328.78406	176.16402	-7.65489	-326.94357	-153.47968	31.53166	325.43112	128.83914	73.28658	271.72028	8.94623	1040.60828	-787.16833	-146.71016	546.98639	-461.48056	11.84267	550.35431	-470.67203	-83.06127	582.50555	481.93024	70.24878	573.02356	472.88086	
4097	40.960	-280.48096	45.17156	-330.83719	176.33369	-8.12653	-327.04532	-153.31866	31.61751	325.25034	124.13807	64.07338	269.69211	7.89637	1039.59351	-789.17004	-148.32689	546.15045	-462.90778	10.72936	549.92737	-472.66785	-86.09470	583.04242	479.76001	68.53156	573.38165	471.65424	
4098	40.970	-283.45456	36.80085	-332.67780	176.50955	-8.44829	-327.26306	-153.12415	31.73652	325.01630	120.05132	55.45726	268.03799	7.22361	1038.84570	-791.13727	-150.00836	545.62518	-464.56827	8.68195	548.79681	-473.56357	-88.85552	583.66162	478.29800	64.63167	573.64075	470.15421	
4099	40.980	-286.10172	28.78756	-334.18582	176.18950	-8.83895	-327.80405	-152.78717	31.86945	324.89224	116.34780	47.42341	266.44238	6.89973	1037.79578	-793.10175	-151.38536	545.09967	-466.47134	7.69903	548.18756	-475.43130	-91.42344	583.89410	476.90900	61.69050	573.74268	468.86801	
4100	40.990	-288.72931	21.12144	-335.63998	176.47406	-8.78859	-327.84570	-152.52235	31.93516	324.58447	112.88281	40.72653	265.36142	6.37451	1036.46594	-795.19489	-152.99017	544.38135	-468.36908	5.37275	547.05365	-476.48926	-94.92512	583.87811	474.67984	58.42810	573.78522	467.15460	
4101	41.000	-291.13690	14.65308	-337.46997	176.58260	-8.77131	-327.87207	-152.17091	31.78312	324.40106	111.83640	38.57380	262.16718	6.10171	1035.41150	-797.29913	-154.65836	543.70575	-470.21646	3.82658	546.68927	-478.47238	-98.60553	584.17645	472.74408	55.28914	573.93591	465.59531	
4102	41.010	-294.20062	8.06722	-339.91800	177.18245	-8.47519	-327.56497	-151.82680	31.93427	324.23865	112.31541	36.76104	261.04837	5.91182	1034.50195	-799.38190	-156.31488	543.27728	-472.47510	2.48260	546.08936	-480.40338	-102.10352	584.53497	470.99759	51.58280	574.37994	463.70432	
4103	41.020	-297.18134	0.93057	-342.48337	177.51466	-8.55111	-327.57336	-151.40068	32.42568	324.06433	113.17206	37.07582	260.67441	5.57274	1033.72717	-801.65112	-157.67722	542.09363	-475.07675	1.13242	544.90704	-482.10339	-106.11015	585.88684	468.59888	47.54493	576.36554	462.50125	
4104	41.030	-297.85919	-5.98877	-345.48099	178.11340	-8.34618	-327.27151	-150.98257	32.50497	323.98318	113.53364	38.34878	261.66687	5.32860	1033.19324	-804.96185	-159.18053	540.71490	-477.83994	-0.06179	544.19104	-484.35556	-110.18507	587.47491	465.52899	43.48656	578.23157	460.38379	
4105	41.040	-298.75955	-10.37264	-347.23572	178.11569	-8.35343	-327.24350	-150.54526	32.43302	323.76355	113.55566	39.05341	262.26340	4.63198	1031.67358	-808.73462	-160.08577	540.71564	-480.03400	-0.99436	544.15021	-486.75354	-114.11321	588.63574	463.89209	39.37915	579.20673	458.32321	
4106	41.050	-300.53619	-9.08445	-346.57108	176.90901	-7.09605	-328.32956	-150.42543	33.21440	322.10098	114.57406	39.19457	261.51065	3.07204	1029.75916	-812.52991	-161.27895	542.17450	-482.26370	-1.97881	545.05676	-488.74915	-118.08088	589.62555	461.47214	35.31245	579.35577	456.65988	
4107	41.060	-299.62848	-10.40478	-347.03104	171.17262	-4.10178	-327.26047	-151.47992	37.89941	321.22806	113.07055	39.38869	260.21854	1.75860	1028.04150	-815.48804	-162.60316	543.72058	-484.80457	-3.67107	546.11011	-490.51355	-122.14493	590.11914	458.82809	31.79574	580.39191	454.23950	
4108	41.070	-299.10931	-10.59858	-348.22882	164.68027	0.24467	-324.20331	-151.09392	42.67760	322.25269	113.01607	39.73815	259.78284	0.85958	1027.59644	-817.24585	-163.25871	544.22253	-487.12021	-4.14189	547.13568	-492.56009	-125.77470	591.43750	456.54739	28.19684	581.77753	452.56189	
4109	41.080	-298.65173	-10.95316	-348.08600	158.93050	8.67142	-322.41248	-150.85921	52.73055	321.66617	113.15180	40.02465	259.29584	0.66202	1029.28101	-818.40295	-163.74985	543.97516	-489.18683	-4.63872	546.78894	-494.30316	-128.67122	593.05426	454.49820	24.87853	582.90576	450.90826	
4110	41.090	-297.66498	-11.45432	-348.52597	154.27071	17.42807	-322.83463	-153.15288	63.54612	321.10858	114.49148	40.25708	259.66376	2.01549	1031.35132	-819.72174	-164.88780	543.65955	-490.96423	-5.49933	545.92975	-495.42926	-131.03697	594.40662	452.94901	22.48171	584.13403	449.67041	
4111	41.100	-297.19614	-11.81882	-348.11758	151.57346	29.09968	-324.69757	-158.09605	76.47944	318.34753	114.83945	40.51458	259.42715	3.23147	1032.28674	-821.45990	-166.04807	542.89722	-492.03925	-6.77768	545.22644	-496.77936	-133.18341	595.26929	451.48166	20.13587	585.35596	448.38068	
4112	41.110	-296.62054	-12.12995	-347.91629	149.59447	41.93953	-327.53055	-166.83293	88.77399	315.36407	115.37940	40.49222	259.29639	4.55459	1031.77100	-822.43427	-167.78789	542.29858	-493.25421	-8.14589	545.07086	-497.60556	-134.69218	595.69849	450.50662	18.01470	586.05914	447.12943	
4113	41.120	-296.10095	-12.34156	-347.91360	148.27187	55.08559	-331.33679	-175.15022	102.11745	310.80240	115.93097	40.61703	259.33853	4.80022	1030.24512	-823.44714	-168.55316	541.83911	-493.92188	-9.08006	544.66339	-498.50665	-136.20874	596.45850	449.48703	16.70703	586.72528	446.59332	
4114	41.130	-295.45660	-12.62339	-348.13464	146.35135	67.86656	-335.15015	-184.35562	114.70721	305.94958	117.14734	40.43278	259.38297	4.55514	1028.35498	-824.65973	-169.17554	541.79248	-494.71756	-9.93388	544.37714	-499.09439	-137.40659	596.81256	448.63275	15.17658	586.91364	445.72189	
4115	41.140	-295.02597	-12.68496	-348.09854	144.29434	80.70411	-338.14960	-193.32275	126.45403	301.08997	117.60303	40.52404	259.16180	3.71735	1026.79333	-826.16235	-169.74092	541.77991	-495.26605	-10.50759	543.99347	-499.60754	-138.74239	596.98590	447.83047	15.63300	586.65881	445.49719	
